<?xml version="1.0" encoding="UTF-8" standalone="no"?>
<!-- Created with Inkscape (http://www.inkscape.org/) -->

<svg
   version="1.1"
   id="svg2"
   xml:space="preserve"
   width="2666.6667"
   height="2666.6667"
   viewBox="0 0 2666.6667 2666.6667"
   sodipodi:docname="cookiecode.ai"
   xmlns:inkscape="http://www.inkscape.org/namespaces/inkscape"
   xmlns:sodipodi="http://sodipodi.sourceforge.net/DTD/sodipodi-0.dtd"
   xmlns="http://www.w3.org/2000/svg"
   xmlns:svg="http://www.w3.org/2000/svg"><defs
     id="defs6"><clipPath
       clipPathUnits="userSpaceOnUse"
       id="clipPath18"><path
         d="M 0,2000 H 2000 V 0 H 0 Z"
         id="path16" /></clipPath><clipPath
       clipPathUnits="userSpaceOnUse"
       id="clipPath78"><path
         d="M 0,2000 H 2000 V 0 H 0 Z"
         id="path76" /></clipPath></defs><sodipodi:namedview
     id="namedview4"
     pagecolor="none"
     bordercolor="#666666"
     borderopacity="1.0"
     inkscape:pageshadow="2"
     inkscape:pageopacity="0.0"
     inkscape:pagecheckerboard="0" /><g
     id="g8"
     inkscape:groupmode="layer"
     inkscape:label="cookiecodelogo"
     transform="matrix(1.3333333,0,0,-1.3333333,0,2666.6667)"><path
       d="M 0,0 H 2000 V 2000 H 0 Z"
       style="fill:none;fill-opacity:1;fill-rule:nonzero;stroke:none"
       id="path10" /><g
       id="g12"><g
         id="g14"
         clip-path="url(#clipPath18)"><g
           id="g20"
           transform="translate(541.0172,559.1321)"><path
             d="m 0,0 c -47.262,0 -97.15,35.593 -97.15,96.86 0,60.098 36.759,97.149 99.192,97.149 37.051,0 85.481,-12.544 85.481,-50.762 0,-15.755 -5.252,-30.342 -23.34,-30.342 -25.381,0 -25.381,39.677 -62.433,39.677 -18.963,0 -29.757,-10.795 -29.757,-32.675 0,-33.551 19.254,-66.81 55.431,-66.81 11.086,0 20.713,3.21 30.049,9.337 4.376,2.917 11.378,9.044 16.921,9.044 7.586,0 11.378,-8.461 11.378,-15.171 C 85.772,23.632 42.594,0 0,0"
             style="fill:#000000;fill-opacity:1;fill-rule:nonzero;stroke:none"
             id="path22" /></g><g
           id="g24"
           transform="translate(773.8293,634.9855)"><path
             d="m 0,0 c 0,17.213 -17.796,77.021 -44.637,77.021 -16.629,0 -21.588,-11.962 -21.588,-26.257 0,-23.34 12.253,-81.98 42.302,-81.98 C -7.294,-31.216 0,-15.171 0,0 m -34.717,-75.853 c -55.723,0 -102.11,46.388 -102.11,102.11 0,60.39 50.472,93.066 106.194,93.066 53.097,0 99.485,-38.219 99.485,-95.108 0,-60.974 -47.263,-100.068 -103.569,-100.068"
             style="fill:#000000;fill-opacity:1;fill-rule:nonzero;stroke:none"
             id="path26" /></g><g
           id="g28"
           transform="translate(984.1794,634.9855)"><path
             d="m 0,0 c 0,17.213 -17.797,77.021 -44.637,77.021 -16.629,0 -21.588,-11.962 -21.588,-26.257 0,-23.34 12.253,-81.98 42.302,-81.98 C -7.294,-31.216 0,-15.171 0,0 m -34.717,-75.853 c -55.723,0 -102.11,46.388 -102.11,102.11 0,60.39 50.472,93.066 106.193,93.066 53.098,0 99.485,-38.219 99.485,-95.108 0,-60.974 -47.262,-100.068 -103.568,-100.068"
             style="fill:#000000;fill-opacity:1;fill-rule:nonzero;stroke:none"
             id="path30" /></g><g
           id="g32"
           transform="translate(1131.5149,614.2718)"><path
             d="m 0,0 c 0,-23.34 21.589,-20.714 21.589,-38.802 0,-9.627 -9.044,-15.17 -18.381,-15.17 -10.793,0 -23.338,0.875 -34.424,0.875 -11.086,0 -24.507,-0.875 -35.593,-0.875 -8.752,0 -18.088,5.543 -18.088,15.17 0,18.088 21.588,15.462 21.588,38.802 v 85.772 c 0,23.924 -19.837,18.964 -19.837,35.301 0,12.545 10.793,15.754 21.588,15.754 5.543,0 18.088,-1.458 30.342,-1.458 11.086,0 22.463,1.458 28.299,1.458 10.502,0 19.546,-3.209 19.546,-15.754 C 16.629,107.361 0,109.403 0,84.314 c 0,-5.835 2.626,-8.753 7.585,-8.753 8.169,0 26.549,18.38 26.549,28.592 0,6.71 -4.96,7.001 -4.96,16.629 0,13.712 8.46,16.045 21.589,16.045 8.169,0 16.338,-1.458 25.091,-1.458 6.417,0 14.003,1.458 21.588,1.458 11.67,0 22.173,-3.209 22.173,-16.045 0,-22.756 -25.966,-17.213 -34.135,-24.507 C 77.02,88.689 69.727,65.935 50.763,57.473 70.31,50.764 88.69,35.301 98.026,13.712 c 4.376,-9.919 7.293,-24.798 15.462,-33.258 6.127,-6.418 17.796,-5.836 17.796,-18.381 0,-15.462 -22.756,-16.337 -35.3,-16.337 -28.883,0 -43.47,7.877 -51.931,21.88 C 29.758,-8.46 32.675,23.631 11.378,23.631 4.376,23.631 0,16.922 0,9.92 Z"
             style="fill:#000000;fill-opacity:1;fill-rule:nonzero;stroke:none"
             id="path34" /></g><g
           id="g36"
           transform="translate(1291.1018,700.0441)"><path
             d="m 0,0 c 0,23.923 -19.838,18.964 -19.838,35.301 0,12.545 10.794,15.754 21.589,15.754 5.543,0 18.088,-1.458 30.341,-1.458 11.086,0 23.631,1.458 29.466,1.458 10.502,0 21.589,-3.209 21.589,-15.754 C 83.147,18.964 63.309,23.923 63.309,0 v -85.772 c 0,-23.631 21.588,-20.714 21.588,-38.802 0,-9.628 -9.044,-15.171 -18.38,-15.171 -10.794,0 -23.339,0.875 -34.425,0.875 -11.086,0 -24.507,-0.875 -35.593,-0.875 -8.751,0 -18.088,5.543 -18.088,15.171 0,18.088 21.589,15.171 21.589,38.802 z"
             style="fill:#000000;fill-opacity:1;fill-rule:nonzero;stroke:none"
             id="path38" /></g><g
           id="g40"
           transform="translate(1464.1083,719.8829)"><path
             d="m 0,0 c -11.961,0 -19.839,-16.338 -19.839,-25.673 0,-14.296 6.711,-18.964 19.839,-18.964 16.046,0 19.839,4.668 19.839,19.547 C 19.839,-16.338 12.254,0 0,0 m 3.501,-159.875 c -47.554,0 -98.026,33.55 -98.026,96.859 0,51.346 35.01,97.442 93.65,97.442 46.387,0 87.815,-29.174 87.815,-76.145 0,-26.84 -23.631,-27.715 -36.76,-27.715 -28.883,0 -41.136,2.624 -53.972,2.624 -7.878,0 -12.837,-1.749 -12.837,-8.167 0,-21.881 28.883,-33.843 46.679,-33.843 14.295,0 25.381,4.96 32.966,12.545 5.836,5.835 9.628,7.877 15.171,7.877 7.294,0 10.502,-7.002 10.502,-17.797 0,-21.88 -34.424,-53.68 -85.188,-53.68"
             style="fill:#000000;fill-opacity:1;fill-rule:nonzero;stroke:none"
             id="path42" /></g><g
           id="g44"
           transform="translate(700.0203,339.8198)"><path
             d="m 0,0 c -47.263,0 -97.15,35.593 -97.15,96.86 0,60.098 36.759,97.149 99.192,97.149 37.051,0 85.481,-12.544 85.481,-50.762 0,-15.755 -5.252,-30.342 -23.34,-30.342 -25.381,0 -25.381,39.677 -62.433,39.677 -18.963,0 -29.757,-10.794 -29.757,-32.675 0,-33.551 19.254,-66.81 55.431,-66.81 11.086,0 20.713,3.21 30.049,9.337 4.376,2.917 11.378,9.044 16.921,9.044 7.586,0 11.378,-8.461 11.378,-15.171 C 85.772,23.632 42.594,0 0,0"
             style="fill:#000000;fill-opacity:1;fill-rule:nonzero;stroke:none"
             id="path46" /></g><g
           id="g48"
           transform="translate(932.8324,415.6732)"><path
             d="m 0,0 c 0,17.213 -17.796,77.021 -44.637,77.021 -16.629,0 -21.588,-11.962 -21.588,-26.257 0,-23.34 12.253,-81.98 42.302,-81.98 C -7.293,-31.216 0,-15.171 0,0 m -34.717,-75.853 c -55.723,0 -102.11,46.388 -102.11,102.11 0,60.39 50.472,93.066 106.194,93.066 53.097,0 99.484,-38.219 99.484,-95.108 0,-60.974 -47.262,-100.068 -103.568,-100.068"
             style="fill:#000000;fill-opacity:1;fill-rule:nonzero;stroke:none"
             id="path50" /></g><g
           id="g52"
           transform="translate(1135.3082,434.3447)"><path
             d="m 0,0 c 0,33.842 -10.504,61.558 -46.388,61.558 -6.418,0 -7.002,-5.543 -7.293,-16.921 -0.291,-15.171 -0.875,-37.343 -0.875,-44.345 0,-13.42 0.875,-32.383 1.459,-36.176 1.166,-11.67 2.042,-21.298 15.462,-21.298 C -9.628,-57.182 0,-24.506 0,0 m -118.448,46.387 c 0,23.923 -19.838,18.964 -19.838,35.301 0,12.545 10.794,15.754 21.589,15.754 9.918,0 32.675,-1.75 48.72,-1.75 17.797,0 25.966,0.583 44.637,0.583 62.433,0 93.649,-39.677 93.649,-94.524 0,-42.303 -31.507,-94.816 -78.77,-94.816 -19.838,0 -39.386,1.458 -59.516,1.458 -18.088,0 -36.176,-1.751 -53.972,-1.751 -8.752,0 -18.088,5.543 -18.088,15.171 0,18.088 21.589,15.171 21.589,38.802 z"
             style="fill:#000000;fill-opacity:1;fill-rule:nonzero;stroke:none"
             id="path54" /></g><g
           id="g56"
           transform="translate(1305.1051,500.5706)"><path
             d="m 0,0 c -11.961,0 -19.839,-16.338 -19.839,-25.673 0,-14.296 6.711,-18.964 19.839,-18.964 16.046,0 19.839,4.668 19.839,19.547 C 19.839,-16.338 12.254,0 0,0 m 3.501,-159.875 c -47.554,0 -98.026,33.55 -98.026,96.859 0,51.346 35.01,97.442 93.65,97.442 46.387,0 87.815,-29.174 87.815,-76.145 0,-26.84 -23.631,-27.715 -36.76,-27.715 -28.883,0 -41.136,2.625 -53.972,2.625 -7.878,0 -12.837,-1.75 -12.837,-8.169 0,-21.88 28.883,-33.842 46.679,-33.842 14.295,0 25.381,4.96 32.966,12.545 5.836,5.835 9.628,7.877 15.171,7.877 7.294,0 10.503,-7.002 10.503,-17.797 0,-21.88 -34.425,-53.68 -85.189,-53.68"
             style="fill:#000000;fill-opacity:1;fill-rule:nonzero;stroke:none"
             id="path58" /></g></g></g><g
       id="g60"
       transform="translate(963.9583,1093.2937)"><path
         d="m 0,0 -67.166,-25.546 v -18.34 L 0,-69.432 v 17.646 L -46.994,-34.71 0,-17.497 Z"
         style="fill:#000000;fill-opacity:1;fill-rule:nonzero;stroke:none"
         id="path62" /></g><g
       id="g64"
       transform="translate(1014.481,1128.0153)"><path
         d="m 0,0 -46.573,-132.944 h 19.615 L 19.615,0 Z"
         style="fill:#000000;fill-opacity:1;fill-rule:nonzero;stroke:none"
         id="path66" /></g><g
       id="g68"
       transform="translate(1036.6345,1093.2937)"><path
         d="M 0,0 V -17.497 L 46.994,-34.71 0,-51.786 v -17.646 l 67.178,25.546 v 18.34 z"
         style="fill:#000000;fill-opacity:1;fill-rule:nonzero;stroke:none"
         id="path70" /></g><g
       id="g72"><g
         id="g74"
         clip-path="url(#clipPath78)"><g
           id="g80"
           transform="translate(1000.2281,1305.1637)"><path
             d="M 0,0 C 8.083,0 14.64,6.557 14.64,14.64 14.64,22.723 8.083,29.28 0,29.28 -8.083,29.28 -14.64,22.723 -14.64,14.64 -14.64,6.557 -8.083,0 0,0"
             style="fill:#000000;fill-opacity:1;fill-rule:nonzero;stroke:none"
             id="path82" /></g><g
           id="g84"
           transform="translate(936.1476,1502.8451)"><path
             d="m 0,0 c 10,0 18.106,8.106 18.106,18.106 0,10 -8.106,18.106 -18.106,18.106 -10,0 -18.106,-8.106 -18.106,-18.106 C -18.106,8.106 -10,0 0,0"
             style="fill:#000000;fill-opacity:1;fill-rule:nonzero;stroke:none"
             id="path86" /></g><g
           id="g88"
           transform="translate(1000.2281,1242.7445)"><path
             d="M 0,0 C 8.083,0 14.64,6.557 14.64,14.64 14.64,22.734 8.083,29.28 0,29.28 -8.083,29.28 -14.64,22.734 -14.64,14.64 -14.64,6.557 -8.083,0 0,0"
             style="fill:#000000;fill-opacity:1;fill-rule:nonzero;stroke:none"
             id="path90" /></g><g
           id="g92"
           transform="translate(936.1575,1586.3395)"><path
             d="m 0,0 c -8.852,-2.656 -23.01,-11.922 -20.615,-17.396 1.549,-3.541 12.393,2.655 22.352,5.311 11.318,3.018 20.14,2.435 19.033,7.082 C 19.664,-0.355 8.853,2.656 0,0"
             style="fill:#000000;fill-opacity:1;fill-rule:nonzero;stroke:none"
             id="path94" /></g><g
           id="g96"
           transform="translate(1277.0332,866.3738)"><path
             d="m 0,0 c -50.136,-12.227 -138.864,-26.81 -276.805,-26.81 -137.942,0 -226.669,14.583 -276.805,26.81 -68.897,16.803 -87.897,34.244 -89.627,38.535 0.671,2.528 8.686,11.794 41.233,21.232 24.487,7.103 54.712,11.794 78.072,12.192 62.488,-44.99 145.341,-67.736 247.127,-67.736 101.785,0 184.639,22.746 247.127,67.736 C -6.318,71.561 23.907,66.87 48.394,59.767 80.941,50.329 88.956,41.063 89.627,38.535 87.897,34.244 68.897,16.803 0,0 m -276.805,-63.034 c -68.681,0 -132.614,12.227 -181.031,26.719 54.28,-6.489 115.504,-9.848 181.031,-9.848 65.527,0 126.751,3.359 181.03,9.848 -48.416,-14.492 -112.35,-26.719 -181.03,-26.719 m -273.14,183.057 c -83.605,87.066 -96.571,218.268 -92.723,313.006 0.159,3.917 1.594,7.651 4.03,10.519 17.292,20.298 71.014,37.591 107.409,46.914 -3.233,-4.872 -6.034,-9.722 -8.413,-14.514 -2.379,-4.782 -4.314,-9.517 -5.817,-14.151 -0.137,-0.023 -0.273,-0.057 -0.41,-0.091 -10.701,-2.709 -63.842,-17.645 -58.958,-45.468 3.517,-20.048 39.218,-37.34 106.1,-51.388 21.937,-4.611 46.105,-8.527 71.617,-11.68 0,-0.011 0.012,-0.011 0.012,0 3.039,-0.376 6.079,-0.74 9.164,-1.093 44.865,-5.157 93.464,-7.946 141.129,-7.946 47.665,0 96.264,2.789 141.129,7.946 3.085,0.353 6.125,0.717 9.164,1.093 0,-0.011 0.012,-0.011 0.012,0 25.511,3.153 49.68,7.069 71.617,11.68 66.882,14.048 102.583,31.34 106.1,51.388 4.884,27.823 -48.257,42.759 -58.958,45.468 -0.137,0.034 -0.273,0.068 -0.41,0.091 -1.503,4.634 -3.438,9.369 -5.817,14.151 -2.38,4.792 -5.18,9.642 -8.413,14.514 18.192,-4.656 40.732,-11.315 60.871,-19.341 20.138,-8.026 37.897,-17.418 46.538,-27.573 2.436,-2.868 3.871,-6.602 4.03,-10.519 3.848,-94.738 -9.119,-225.94 -92.724,-313.006 -61.451,-64.002 -153.355,-96.447 -273.139,-96.447 -119.784,0 -211.688,32.445 -273.14,96.447 m 28.062,348.161 c 3.085,-3.837 7.821,-6.091 12.557,-5.601 3.859,0.41 6.91,2.447 9.358,4.087 0.592,0.398 1.195,0.796 1.798,1.161 2.038,1.252 3.541,1.298 3.757,1.127 0.251,-0.33 0.353,-2.334 -0.967,-5.396 -1.81,-4.235 -4.554,-10.633 -1.025,-16.382 3.119,-5.055 9.836,-6.933 17.52,-4.918 0.752,0.194 1.503,0.41 2.254,0.626 2.88,0.831 5.601,1.617 7.446,0.956 1.183,-0.432 2.208,-1.673 2.641,-3.142 -2.824,-2.356 -5.579,-4.838 -8.311,-7.285 -11.099,-9.984 -21.596,-19.399 -33.674,-18.591 -8.709,0.592 -15.391,4.895 -18.795,12.113 -4.861,10.303 -2.778,25.068 5.441,41.245 m -22.939,-49.51 c 6.444,-13.638 19.194,-22.085 34.984,-23.155 0.979,-0.057 1.946,-0.091 2.891,-0.091 18.773,0 32.684,12.5 45.025,23.588 9.152,8.23 17.793,15.994 26.525,17.178 9.642,1.321 17.451,1.81 23.303,1.947 -10.94,-26.844 -15.949,-53.915 -17.93,-67.405 h -0.011 c -23.179,2.971 -45.139,6.602 -65.186,10.814 -70.775,14.88 -91.642,31.125 -92.781,37.636 -0.558,3.165 4.315,9.415 19.877,16.576 6.831,3.142 13.877,5.601 18.977,7.206 -0.068,-1.15 -0.102,-2.3 -0.102,-3.427 0,-7.547 1.457,-14.571 4.428,-20.867 m 29.656,60.996 c 0.899,1.355 1.833,2.721 2.823,4.099 30.157,42.132 68.362,58.172 127.753,53.63 h 0.023 c 5.76,-5.885 12.169,-10.985 19.125,-15.243 v -0.023 -0.011 c 0.353,-1.89 0.854,-3.586 1.491,-5.009 2.516,-5.556 6.045,-8.948 10.462,-10.087 3.313,-0.842 6.364,-0.227 8.823,0.797 0.649,0.273 1.412,0.114 1.901,-0.409 8.163,-8.516 22.882,-22.405 33.72,-24.317 7.331,-1.287 11.726,0.068 14.344,2.083 5.123,-4.269 12.124,-7.673 17.896,-7.957 5.772,0.284 12.773,3.688 17.896,7.957 2.618,-2.015 7.012,-3.37 14.344,-2.083 10.838,1.912 25.557,15.801 33.719,24.317 0.49,0.523 1.253,0.682 1.902,0.409 2.459,-1.024 5.51,-1.639 8.822,-0.797 4.417,1.139 7.947,4.531 10.462,10.087 0.638,1.423 1.139,3.119 1.492,5.009 v 0.011 0.023 c 6.955,4.258 13.365,9.358 19.125,15.243 h 0.023 c 59.391,4.542 97.596,-11.498 127.753,-53.63 0.99,-1.378 1.923,-2.744 2.823,-4.099 0.114,-1.172 0.034,-2.288 -0.285,-3.278 -0.671,-2.106 -2.743,-3.791 -4.474,-3.609 -1.354,0.136 -3.005,1.241 -4.747,2.402 -0.717,0.478 -1.434,0.956 -2.152,1.4 -5.589,3.404 -11.327,3.598 -15.334,0.501 -4.588,-3.54 -5.43,-10.075 -2.254,-17.486 1.025,-2.368 2.504,-5.829 1.753,-7.047 -0.512,-0.831 -3.028,-1.206 -6.193,-0.375 -0.66,0.17 -1.343,0.364 -2.015,0.557 -3.916,1.127 -8.8,2.539 -13.763,0.74 -3.131,-1.127 -5.772,-3.46 -7.491,-6.42 -6.125,4.144 -12.728,7.297 -20.207,8.322 -17.065,2.322 -29.143,2.356 -36.281,1.98 -4.303,-0.227 -12.135,-0.239 -14.355,-3.927 -2.22,-3.677 1.457,-10.53 3.267,-14.435 12.397,-26.833 18.01,-56.477 20.138,-70.559 -42.724,-4.69 -88.75,-7.229 -133.968,-7.229 -45.218,0 -91.244,2.539 -133.969,7.229 2.129,14.082 7.742,43.726 20.139,70.559 1.81,3.905 5.487,10.758 3.267,14.435 -2.22,3.688 -10.052,3.7 -14.355,3.927 -7.138,0.376 -19.217,0.342 -36.281,-1.98 -7.48,-1.025 -14.083,-4.178 -20.207,-8.322 -1.719,2.96 -4.36,5.293 -7.491,6.42 -4.963,1.799 -9.847,0.387 -13.763,-0.74 -0.672,-0.193 -1.355,-0.387 -2.015,-0.557 -3.165,-0.831 -5.681,-0.456 -6.193,0.375 -0.752,1.218 0.728,4.679 1.753,7.047 3.176,7.411 2.334,13.946 -2.254,17.486 -4.007,3.097 -9.745,2.903 -15.335,-0.501 -0.717,-0.444 -1.434,-0.922 -2.151,-1.4 -1.742,-1.161 -3.393,-2.266 -4.747,-2.402 -1.731,-0.182 -3.803,1.503 -4.474,3.609 -0.319,0.99 -0.399,2.106 -0.285,3.278 m 113.135,186.45 c -2.128,2.789 -3.267,6.204 -2.925,9.687 0.136,1.378 0.364,2.755 0.649,3.974 0.523,2.174 2.481,3.688 4.724,3.688 h 93.054 c 2.505,0 4.929,-0.296 7.252,-0.763 10.815,-3.199 17.725,-11.589 11.35,-23.201 0,-0.022 -0.012,-0.034 -0.023,-0.056 -1.56,-2.562 -3.21,-5.647 -5.123,-9.222 -4.258,-7.934 -10.69,-19.945 -15.517,-22.905 -10.632,-6.511 -61.451,-11.509 -73.006,-0.808 -7.81,7.218 -11.657,18.146 -14.743,26.924 -1.889,5.384 -3.403,9.699 -5.692,12.682 m 125.226,85.312 c 25.728,0 73.029,-7.103 102.844,-54.302 h -73.12 c -9.005,0 -16.849,-2.732 -22.586,-4.724 -2.744,-0.957 -5.863,-2.038 -7.138,-2.038 -1.275,0 -4.394,1.081 -7.138,2.038 -5.738,1.992 -13.581,4.724 -22.586,4.724 h -73.12 c 29.815,47.199 77.116,54.302 102.844,54.302 m -20.002,-131.976 c 5.965,6.011 11.122,15.63 15.778,24.328 1.298,2.425 2.846,5.316 4.224,7.684 1.377,-2.368 2.926,-5.259 4.223,-7.684 4.657,-8.698 9.814,-18.317 15.779,-24.328 -7.889,-1.252 -14.799,-3.848 -20.002,-7.582 -5.203,3.734 -12.113,6.33 -20.002,7.582 m -73.45,-65.823 c 1.32,-0.911 3.54,-0.478 5.134,-0.25 0,0 -0.387,-2.847 -0.729,-7.025 v -0.011 c -13.536,11.749 -23.588,28.335 -28.927,48.121 -2.789,10.291 -4.189,21.095 -4.292,31.967 0.012,0 0.012,-0.012 0.012,-0.012 v -0.068 c 2.254,-3.507 4.94,-6.876 8.185,-9.87 8.515,-7.878 24.487,-9.916 38.695,-9.916 h 0.58 c -3.518,-2.686 -6.648,-5.749 -9.312,-9.13 -2.038,-2.584 -1.708,-6.329 0.74,-8.538 l 2.447,-2.209 c -9.334,-11.065 -12.773,-18.795 -14.571,-25.545 -0.786,-2.938 0.091,-6.182 2.038,-7.514 m 171.991,1.81 c 2.095,-11.156 2.994,-25.922 -0.717,-34.095 -1.139,-2.516 -2.482,-3.962 -3.677,-4.395 -1.867,-0.671 -5.533,1.105 -6.762,2.027 -2.585,1.935 -3.712,1.036 -5.886,-1.344 -10.314,-11.258 -23.918,-23.189 -31.033,-24.441 -2.072,-0.365 -5.385,-1.093 -7.024,0.569 -0.808,0.831 -1.287,1.924 -1.958,2.869 -0.672,0.945 -1.674,1.81 -2.835,1.776 -1.73,-0.035 -12.705,-11.658 -18.647,-11.658 -5.943,0 -16.917,11.623 -18.647,11.658 -1.161,0.034 -2.163,-0.831 -2.835,-1.776 -0.672,-0.945 -1.15,-2.038 -1.958,-2.869 -1.639,-1.662 -4.952,-0.934 -7.024,-0.569 -7.115,1.252 -20.719,13.183 -31.033,24.441 -2.175,2.38 -3.302,3.279 -5.886,1.344 -1.229,-0.922 -4.895,-2.698 -6.762,-2.027 -1.195,0.433 -2.539,1.879 -3.677,4.395 -3.711,8.173 -2.812,22.939 -0.717,34.095 0.182,0.956 1.138,3.95 0.876,4.895 -0.785,2.801 -5.009,1.594 -7.809,1.48 -0.569,-0.023 -0.968,0.547 -0.74,1.07 1.89,4.429 5.555,10.189 13.126,18.056 3.29,3.426 5.92,5.464 5.954,7.274 0.022,1.309 -4.338,3.324 -6.774,4.349 -0.774,0.318 -0.933,1.32 -0.33,1.889 9.016,8.561 24.146,14.64 38.865,15.506 13.411,0.785 25.865,-2.505 31.751,-8.379 1.001,-1.002 2.311,-1.503 3.62,-1.503 1.309,0 2.618,0.501 3.62,1.503 5.886,5.874 18.34,9.164 31.75,8.379 14.72,-0.866 29.85,-6.945 38.866,-15.506 0.603,-0.569 0.444,-1.571 -0.33,-1.889 -2.437,-1.025 -6.797,-3.04 -6.774,-4.349 0.034,-1.81 2.664,-3.848 5.954,-7.274 7.571,-7.867 11.236,-13.627 13.126,-18.056 0.228,-0.523 -0.171,-1.093 -0.74,-1.07 -2.801,0.114 -7.024,1.321 -7.81,-1.48 -0.261,-0.945 0.695,-3.939 0.877,-4.895 m 9.779,-2.06 c 1.594,-0.228 3.814,-0.661 5.134,0.25 1.947,1.332 2.824,4.576 2.038,7.514 -1.799,6.75 -5.237,14.48 -14.572,25.545 l 2.448,2.209 c 2.447,2.209 2.778,5.954 0.74,8.538 -2.664,3.381 -5.795,6.444 -9.312,9.13 h 0.58 c 14.207,0 30.18,2.038 38.695,9.916 3.244,2.994 5.931,6.363 8.185,9.87 v 0.068 c 0,0 0,0.012 0.011,0.012 -0.102,-10.872 -1.502,-21.676 -4.291,-31.967 -5.34,-19.786 -15.392,-36.372 -28.928,-48.121 v 0.011 c -0.341,4.178 -0.728,7.025 -0.728,7.025 m 34.46,130.086 c 2.242,0 4.2,-1.514 4.724,-3.688 0.285,-1.219 0.512,-2.596 0.649,-3.974 0.342,-3.483 -0.797,-6.898 -2.926,-9.687 -2.288,-2.983 -3.802,-7.298 -5.692,-12.682 -3.085,-8.778 -6.933,-19.706 -14.742,-26.924 -11.555,-10.701 -62.374,-5.703 -73.007,0.808 -4.827,2.96 -11.258,14.971 -15.516,22.905 -1.913,3.575 -3.563,6.66 -5.123,9.222 -0.011,0.022 -0.023,0.034 -0.023,0.056 -6.375,11.612 0.535,20.002 11.35,23.201 2.323,0.467 4.747,0.763 7.252,0.763 z M -4.463,442.968 c 5.1,-1.605 12.147,-4.064 18.978,-7.206 15.562,-7.161 20.434,-13.411 19.876,-16.576 -1.138,-6.511 -22.005,-22.756 -92.78,-37.636 -20.048,-4.212 -42.008,-7.843 -65.186,-10.814 h -0.011 c -1.981,13.49 -6.99,40.561 -17.93,67.405 5.851,-0.137 13.661,-0.626 23.303,-1.947 8.732,-1.184 17.372,-8.948 26.525,-17.178 12.341,-11.088 26.252,-23.588 45.024,-23.588 0.945,0 1.913,0.034 2.892,0.091 15.79,1.07 28.54,9.517 34.983,23.155 3.416,7.24 4.827,15.448 4.326,24.294 m -27.265,25.216 c 8.22,-16.177 10.303,-30.942 5.442,-41.245 -3.404,-7.218 -10.086,-11.521 -18.795,-12.113 -12.079,-0.808 -22.575,8.607 -33.674,18.591 -2.733,2.447 -5.488,4.929 -8.311,7.285 0.433,1.469 1.457,2.71 2.641,3.142 1.845,0.661 4.565,-0.125 7.446,-0.956 0.751,-0.216 1.502,-0.432 2.254,-0.626 7.684,-2.015 14.401,-0.137 17.52,4.918 3.529,5.749 0.785,12.147 -1.025,16.382 -1.32,3.062 -1.218,5.066 -0.968,5.396 0.217,0.171 1.72,0.125 3.757,-1.127 0.604,-0.365 1.207,-0.763 1.799,-1.161 2.448,-1.64 5.498,-3.677 9.358,-4.087 4.736,-0.49 9.471,1.764 12.556,5.601 M 109.003,39.173 c -0.74,15.596 -19.319,28.779 -55.224,39.184 -18.75,5.43 -40.733,9.551 -60.905,11.578 6.033,5.316 11.839,10.872 17.417,16.677 9.13,9.506 17.646,19.684 25.535,30.498 5.999,8.208 11.635,16.781 16.905,25.717 6.284,10.667 12.056,21.846 17.293,33.526 4.644,10.292 8.868,20.981 12.67,32.047 4.155,12.033 7.81,24.51 10.975,37.419 6.511,26.537 10.963,54.906 13.33,84.892 0.479,6.011 0.866,12.078 1.173,18.214 0.353,7.127 0.603,14.333 0.729,21.63 0.113,6.023 0.147,12.09 0.091,18.215 -0.057,8.253 -0.262,16.609 -0.604,25.045 -0.33,8.231 -3.392,16.143 -8.629,22.279 -29.36,34.471 -128.527,56.067 -141.721,58.822 h -0.011 c -27.96,28.995 -62.681,42.565 -108.582,42.565 -1.013,0 -2.049,-0.012 -3.074,-0.023 5.783,9.608 10.348,20.321 13.49,31.967 6.182,22.893 6.603,47.369 1.685,70.524 l 0.012,0.012 c 4.667,6.033 3.995,17.281 2.151,23.941 -3.313,11.942 -10.485,13.228 -13.41,13.228 h -1.947 c -1.48,2.846 -3.051,5.635 -4.713,8.367 -34.687,56.807 -90.356,65.288 -120.444,65.288 -30.088,0 -85.757,-8.481 -120.444,-65.288 -1.662,-2.732 -3.233,-5.521 -4.713,-8.367 h -1.947 c -2.926,0 -10.098,-1.286 -13.41,-13.228 -1.845,-6.66 -2.516,-17.908 2.151,-23.941 l 0.012,-0.012 c -4.918,-23.155 -4.497,-47.631 1.684,-70.524 3.142,-11.646 7.707,-22.359 13.491,-31.967 -47.427,0.615 -83.07,-12.898 -111.656,-42.542 h -0.011 c -13.195,-2.755 -112.362,-24.351 -141.721,-58.822 -5.237,-6.136 -8.299,-14.048 -8.63,-22.279 -2.504,-61.486 2.448,-118.008 14.72,-167.996 15.813,-64.491 43.875,-118.064 83.378,-159.207 5.578,-5.805 11.384,-11.361 17.417,-16.677 -20.172,-2.027 -42.155,-6.148 -60.905,-11.578 -35.905,-10.405 -54.484,-23.588 -55.224,-39.184 -0.274,-5.635 2.242,-11.27 7.456,-16.746 15.722,-16.484 57.411,-32.969 114.377,-45.218 1.559,-0.342 3.13,-0.672 4.713,-1.002 42.075,-22.814 144.578,-56.317 259.262,-56.317 114.684,0 217.186,33.503 259.262,56.317 1.582,0.33 3.153,0.66 4.713,1.002 56.966,12.249 98.655,28.734 114.377,45.218 5.213,5.476 7.729,11.111 7.456,16.746"
             style="fill:#000000;fill-opacity:1;fill-rule:nonzero;stroke:none"
             id="path98" /></g><g
           id="g100"
           transform="translate(1064.3086,1502.8451)"><path
             d="m 0,0 c 10,0 18.106,8.106 18.106,18.106 0,10 -8.106,18.106 -18.106,18.106 -10,0 -18.106,-8.106 -18.106,-18.106 C -18.106,8.106 -10,0 0,0"
             style="fill:#000000;fill-opacity:1;fill-rule:nonzero;stroke:none"
             id="path102" /></g><g
           id="g104"
           transform="translate(1043.2943,1434.92)"><path
             d="m 0,0 c -5.726,-9.449 -21.266,-15.596 -43.066,-15.596 -21.801,0 -37.34,6.147 -43.066,15.596 -1.993,3.279 -1.731,6.466 -0.979,8.834 0.796,2.516 3.039,4.326 5.646,4.713 0.251,0.034 0.501,0.068 0.751,0.103 5.658,0.683 8.516,-0.752 12.853,-2.915 5.237,-2.618 11.771,-5.885 24.795,-5.885 13.023,0 19.558,3.267 24.794,5.885 4.338,2.163 7.195,3.598 12.853,2.915 0.251,-0.035 0.501,-0.069 0.751,-0.103 C -2.061,13.16 0.182,11.35 0.979,8.834 1.73,6.466 1.992,3.279 0,0 m 22.506,4.258 c -3.95,10.428 -16.552,16.051 -26.969,17.304 -8.048,0.967 -12.784,-1.401 -17.372,-3.7 -4.963,-2.482 -10.086,-5.044 -21.231,-5.044 -11.145,0 -16.268,2.562 -21.232,5.044 -4.587,2.299 -9.323,4.667 -17.372,3.7 -10.416,-1.253 -23.019,-6.876 -26.969,-17.304 -0.33,-0.854 -0.569,-1.867 -0.091,-2.653 0.171,-0.262 0.376,-0.444 0.626,-0.558 2.22,-1.013 7.582,3.438 10.075,5.328 -0.091,-3.882 1.139,-7.957 2.835,-11.168 4.155,-7.866 16.461,-21.049 52.128,-21.049 35.666,0 47.972,13.183 52.128,21.049 1.696,3.211 2.925,7.286 2.834,11.168 2.493,-1.89 7.855,-6.341 10.075,-5.328 0.251,0.114 0.456,0.296 0.626,0.558 0.479,0.786 0.24,1.799 -0.091,2.653"
             style="fill:#000000;fill-opacity:1;fill-rule:nonzero;stroke:none"
             id="path106" /></g><g
           id="g108"
           transform="translate(1062.5612,1574.2546)"><path
             d="M 0,0 C 9.959,-2.656 20.803,-8.853 22.353,-5.312 24.748,0.163 10.59,9.429 1.738,12.085 -7.115,14.741 -17.926,11.729 -19.033,7.082 -20.139,2.434 -11.317,3.018 0,0"
             style="fill:#000000;fill-opacity:1;fill-rule:nonzero;stroke:none"
             id="path110" /></g><g
           id="g112"
           transform="translate(1343.7345,1060.6881)"><path
             d="m 0,0 -9.352,15.631 c 1.948,1.166 3.889,2.377 5.768,3.6 30.211,19.672 50.684,45.804 60.848,77.669 7.85,24.608 8.712,40.885 8.051,50.206 -0.368,5.21 -4.837,9.291 -10.173,9.291 H 33.215 v 18.214 h 21.927 c 14.853,0 27.303,-11.516 28.343,-26.218 1.123,-15.875 -1.86,-35.061 -8.867,-57.028 C 63.143,55.395 40.177,25.99 6.355,3.967 4.283,2.619 2.146,1.284 0,0"
             style="fill:currentColor;fill-opacity:1;fill-rule:nonzero;stroke:none"
             id="path114" /></g><g
           id="g116"
           transform="translate(1456.3104,1139.9458)"><path
             d="m 0,0 c -14.447,-45.309 -44.592,-83.48 -87.145,-110.392 -24.898,-15.733 -47.097,-23.326 -56.306,-26.069 -2.641,-0.786 -4.213,-1.173 -4.474,-1.23 l -4.247,17.714 c 0.16,0.045 10.553,2.618 25.626,9.232 8.834,3.871 19.273,9.13 30.202,16.086 39.162,24.92 65.732,58.628 78.995,100.192 19.637,61.588 5.942,89.877 -0.854,99.19 -5.783,7.912 -13.342,12.26 -21.3,12.26 h -39.856 v 18.215 h 39.856 c 13.718,0 26.844,-7.195 36.008,-19.729 C 6.99,101.114 21.391,67.03 0,0"
             style="fill:currentColor;fill-opacity:1;fill-rule:nonzero;stroke:none"
             id="path118" /></g><g
           id="g120"
           transform="translate(1384.3286,929.9429)"><path
             d="m 0,0 c -10.223,9.631 -27.037,17.782 -50.671,24.624 -12.739,3.7 -26.844,6.807 -41.096,9.096 0.717,0.74 1.434,1.48 2.151,2.231 8.606,8.959 16.803,18.636 24.385,28.79 11.942,3.814 32.581,11.703 55.543,26.207 44.626,28.232 76.251,68.316 91.426,115.936 22.768,71.333 6.66,108.707 -4.975,124.633 -11.122,15.209 -27.265,23.93 -44.284,23.93 H 11.794 c -0.103,5.02 -0.262,10.097 -0.467,15.209 -0.421,10.519 -4.348,20.651 -11.065,28.517 -29.599,34.744 -119.659,56.215 -144.385,61.554 -26.798,26.764 -58.958,40.619 -100.215,43.043 2.71,6.216 4.987,12.705 6.797,19.41 6.181,22.894 7.069,47.495 2.607,71.379 4.178,8.914 3.449,20.457 1.218,28.517 -4.053,14.606 -13.001,18.977 -18.875,20.241 -0.751,1.332 -1.526,2.653 -2.322,3.95 -37.295,61.076 -96.948,70.195 -129.188,70.195 -32.239,0 -91.892,-9.119 -129.198,-70.206 -0.786,-1.298 -1.56,-2.607 -2.311,-3.939 -5.874,-1.264 -14.822,-5.635 -18.875,-20.252 -2.231,-8.049 -2.96,-19.592 1.218,-28.506 -4.462,-23.884 -3.574,-48.485 2.607,-71.367 1.81,-6.728 4.087,-13.217 6.796,-19.422 -41.256,-2.424 -73.416,-16.279 -100.214,-43.043 -24.738,-5.339 -114.786,-26.81 -144.385,-61.554 -6.717,-7.866 -10.644,-17.998 -11.065,-28.506 -2.55,-62.453 2.504,-119.932 15.004,-170.853 16.245,-66.267 45.161,-121.4 85.939,-163.874 0.717,-0.74 1.434,-1.48 2.151,-2.22 -14.253,-2.289 -28.358,-5.396 -41.096,-9.096 C -741.164,17.782 -757.978,9.631 -768.201,0 c -42.588,52.139 -174.462,240.751 -69.739,468.445 122.948,267.323 387.686,288.759 453.839,288.759 66.154,0 330.892,-21.436 453.84,-288.759 C 174.462,240.751 42.588,52.139 0,0"
             style="fill:#000000;fill-opacity:1;fill-rule:nonzero;stroke:none"
             id="path122" /></g></g></g></g></svg>
